<svg width="77" height="16" viewBox="0 0 77 16" fill="none" xmlns="http://www.w3.org/2000/svg">
    <g clip-path="url(#clip0_24723_64)">
        <g clip-path="url(#clip1_24723_64)">
            <path
                d="M4.95 10.97L2.898 6.02L2.16 4.112V14.3H0V1.7H3.24L6.048 8.522L8.856 1.7H12.06V14.3H9.9V4.094L9.144 6.02L7.11 10.97H4.95Z"
                fill="#40B526" />
            <path
                d="M19.8023 14.462C16.6703 14.462 15.2123 13.058 15.0323 10.07H17.3363C17.4623 11.78 18.1463 12.428 19.8023 12.428C21.5303 12.428 22.3043 11.69 22.3043 10.754C22.3043 7.946 15.2123 9.674 15.2123 5.048C15.2123 3.032 16.7243 1.538 19.8023 1.538C22.8623 1.538 24.2123 2.87 24.3923 5.57H22.0883C21.9623 4.13 21.3683 3.554 19.7843 3.554C18.1643 3.554 17.4803 4.238 17.4803 5.066C17.4803 7.748 24.5723 5.966 24.5723 10.79C24.5723 12.968 23.0603 14.462 19.8023 14.462Z"
                fill="#40B526" />
        </g>
        <rect x="28.5723" width="48" height="16" rx="8" fill="#252D33" />
        <path
            d="M41.4474 3.99091C41.6744 4.1 41.8054 4.27203 41.8403 4.50699C41.884 4.74196 41.8228 4.95594 41.657 5.14895C41.5435 5.3 41.3951 5.38392 41.2117 5.4007C41.0371 5.41748 40.8581 5.38392 40.6748 5.3C40.4653 5.20769 40.2426 5.13636 40.0069 5.08601C39.7799 5.03566 39.5398 5.01049 39.2867 5.01049C38.8152 5.01049 38.3918 5.08182 38.0164 5.22448C37.6497 5.36713 37.3354 5.57273 37.0735 5.84126C36.8116 6.1014 36.6108 6.41189 36.4711 6.77273C36.3402 7.13357 36.2747 7.53217 36.2747 7.96853C36.2747 8.48042 36.3489 8.92517 36.4973 9.3028C36.6545 9.68042 36.8684 9.9951 37.139 10.2469C37.4096 10.4986 37.7283 10.6874 38.095 10.8133C38.4616 10.9308 38.8589 10.9895 39.2867 10.9895C39.5224 10.9895 39.7581 10.9685 39.9938 10.9266C40.2295 10.8846 40.4565 10.8091 40.6748 10.7C40.8581 10.6161 41.0371 10.5867 41.2117 10.6119C41.3951 10.6371 41.5478 10.7252 41.6701 10.8762C41.8447 11.086 41.9058 11.3042 41.8534 11.5308C41.8097 11.749 41.6788 11.9084 41.4605 12.0091C41.2335 12.1182 40.9978 12.2105 40.7534 12.286C40.5176 12.3531 40.2776 12.4035 40.0331 12.4371C39.7887 12.479 39.5398 12.5 39.2867 12.5C38.6581 12.5 38.0601 12.4035 37.4926 12.2105C36.9338 12.0175 36.4318 11.7322 35.9866 11.3545C35.5501 10.9769 35.2052 10.507 34.952 9.94476C34.6989 9.37413 34.5723 8.71538 34.5723 7.96853C34.5723 7.32238 34.6858 6.72657 34.9128 6.18112C35.1485 5.63566 35.4759 5.16573 35.8949 4.77133C36.3227 4.36853 36.8247 4.05804 37.4009 3.83986C37.9771 3.61329 38.6057 3.5 39.2867 3.5C39.6708 3.5 40.0462 3.54196 40.4129 3.62587C40.7796 3.70979 41.1244 3.83147 41.4474 3.99091Z"
            fill="#94A9B7" />
        <path
            d="M49.6054 10.9014C49.8323 10.9014 50.02 10.9727 50.1685 11.1154C50.3256 11.2497 50.4042 11.4259 50.4042 11.6441C50.4042 11.8538 50.3256 12.0301 50.1685 12.1727C50.02 12.307 49.8323 12.3741 49.6054 12.3741H45.3493C45.1223 12.3741 44.9302 12.3028 44.7731 12.1601C44.6247 12.0091 44.5505 11.8245 44.5505 11.6063V4.33077C44.5505 4.11259 44.629 3.93217 44.7862 3.78951C44.9433 3.63846 45.1441 3.56294 45.3886 3.56294C45.5981 3.56294 45.7815 3.63846 45.9386 3.78951C46.1045 3.93217 46.1874 4.11259 46.1874 4.33077V11.1154L45.8993 10.9014H49.6054Z"
            fill="#94A9B7" />
        <path
            d="M59.4662 3.55035C59.6932 3.55035 59.8765 3.62587 60.0162 3.77692C60.1559 3.91958 60.2258 4.1 60.2258 4.31818V8.87482C60.2258 9.57133 60.0686 10.1881 59.7543 10.7252C59.4487 11.2622 59.0253 11.6818 58.484 11.9839C57.9428 12.286 57.3142 12.4371 56.5983 12.4371C55.8824 12.4371 55.2494 12.286 54.6994 11.9839C54.1581 11.6818 53.7304 11.2622 53.4161 10.7252C53.1105 10.1881 52.9577 9.57133 52.9577 8.87482V4.31818C52.9577 4.1 53.0363 3.91958 53.1934 3.77692C53.3506 3.62587 53.5514 3.55035 53.7958 3.55035C53.9966 3.55035 54.1756 3.62587 54.3328 3.77692C54.4986 3.91958 54.5816 4.1 54.5816 4.31818V8.87482C54.5816 9.2944 54.6732 9.65944 54.8566 9.96993C55.0486 10.272 55.2975 10.507 55.603 10.6748C55.9173 10.8427 56.2491 10.9266 56.5983 10.9266C56.9737 10.9266 57.3229 10.8427 57.6459 10.6748C57.9689 10.507 58.2309 10.272 58.4317 9.96993C58.6325 9.65944 58.7329 9.2944 58.7329 8.87482V4.31818C58.7329 4.1 58.7983 3.91958 58.9293 3.77692C59.0602 3.62587 59.2392 3.55035 59.4662 3.55035Z"
            fill="#94A9B7" />
        <path
            d="M67.5996 3.56294C68.4377 3.56294 69.0619 3.75175 69.4722 4.12937C69.8826 4.50699 70.0877 5.06504 70.0877 5.8035C70.0877 6.1979 69.9873 6.54615 69.7865 6.84825C69.5857 7.14196 69.2889 7.37273 68.896 7.54056C68.5032 7.7 68.0186 7.77972 67.4424 7.77972L67.4948 7.21329C67.7655 7.21329 68.0754 7.25105 68.4246 7.32657C68.7738 7.39371 69.1099 7.51958 69.433 7.7042C69.7647 7.88042 70.0354 8.13217 70.2449 8.45944C70.4631 8.77832 70.5723 9.18951 70.5723 9.69301C70.5723 10.2469 70.4762 10.7 70.2842 11.0524C70.1008 11.4049 69.8564 11.6776 69.5508 11.8706C69.2453 12.0636 68.9179 12.1979 68.5686 12.2734C68.2194 12.3406 67.8833 12.3741 67.5603 12.3741H64.2995C64.0725 12.3741 63.8804 12.3028 63.7233 12.1601C63.5749 12.0091 63.5007 11.8245 63.5007 11.6063V4.33077C63.5007 4.11259 63.5749 3.93217 63.7233 3.78951C63.8804 3.63846 64.0725 3.56294 64.2995 3.56294H67.5996ZM67.3639 5.04825H65.0328L65.2031 4.84685V7.12517L65.0459 7.01189H67.4031C67.6563 7.01189 67.8833 6.93217 68.0841 6.77273C68.2849 6.61329 68.3853 6.38252 68.3853 6.08042C68.3853 5.71958 68.2893 5.45944 68.0972 5.3C67.9139 5.13217 67.6694 5.04825 67.3639 5.04825ZM67.4686 8.4972H65.0852L65.2031 8.3965V11.0524L65.0721 10.9266H67.5603C67.9619 10.9266 68.2805 10.8259 68.5163 10.6245C68.752 10.4147 68.8698 10.1042 68.8698 9.69301C68.8698 9.31538 68.7913 9.04266 68.6341 8.87482C68.477 8.70699 68.2893 8.6021 68.071 8.56014C67.8528 8.51818 67.652 8.4972 67.4686 8.4972Z"
            fill="#94A9B7" />
    </g>
    <defs>
        <clipPath id="clip0_24723_64">
            <rect width="76.5723" height="16" fill="white" />
        </clipPath>
        <clipPath id="clip1_24723_64">
            <rect width="24.5723" height="16" fill="white" />
        </clipPath>
    </defs>
</svg>