<svg width="38" height="38" viewBox="0 0 38 38" fill="none" xmlns="http://www.w3.org/2000/svg">
    <path fill-rule="evenodd" clip-rule="evenodd"
        d="M32.4436 32.5802C31.0706 32.683 25.2748 33.6709 22.2776 35.6533C21.2064 36.3611 19.0267 38 19.0267 38C19.0267 38 16.6169 36.0146 15.3734 35.1394C13.9061 34.1094 11.0214 32.9063 5.62618 32.6184C3.32418 32.496 1.72728 30.7123 1.72728 28.5379L1.7735 5.18579C1.69465 3.80148 2.11155 1.86306 3.55619 0.772446C5.01171 -0.327953 6.9657 -0.251591 9.36105 0.994679C9.52418 1.07985 25.6572 9.72934 25.6572 18.602C25.6572 20.75 24.9222 22.6541 23.5891 23.9631C22.4163 25.1124 20.8656 25.7468 19.2207 25.7468C15.8302 25.7468 13.2735 23.0898 13.2735 19.5664C13.2735 16.3905 14.6294 14.5881 15.6907 13.6238C15.6907 13.6238 16.3785 14.266 17.399 15.432C18.2074 16.3533 18.7467 17.2197 18.7467 17.2197C18.6823 17.2657 17.6818 18.1918 17.6818 19.4596C17.6818 20.7196 18.8944 21.0633 19.2515 21.0633C19.7944 21.0633 20.2765 20.7245 20.63 20.378C21.0315 19.9854 21.2345 19.3872 21.2345 18.602C21.2345 14.6106 12.263 7.85063 7.4551 5.34635C6.83972 5.02621 6.4337 4.89992 6.19081 4.85195C6.1899 4.88132 6.1899 4.90971 6.19081 4.93419L6.19897 5.03796L6.19625 5.09964V27.8203C9.41905 27.9819 12.1905 28.5174 14.4952 29.3799C16.6912 30.2022 19.1464 32.0858 19.1464 32.0858C19.1464 32.0858 21.2481 30.6428 23.5918 29.7685C26.762 28.5859 30.2676 27.9564 31.85 27.7959V5.61068C29.4021 5.91417 26.2898 8.46741 24.3893 10.165C24.3893 10.165 23.7449 9.34557 23 8.56727C22.0774 7.60295 21.0161 6.63863 21.0161 6.63863C21.675 6.04927 27.5161 0.759719 32.2923 0.759719C34.7103 0.759719 36.2727 2.46318 36.2727 5.09964V28.0886C36.2102 29.4954 35.4272 32.357 32.4436 32.5802Z"
        fill="white" />
</svg>